<?xml version="1.0" standalone="no"?>
<!DOCTYPE svg PUBLIC "-//W3C//DTD SVG 20010904//EN"
 "http://www.w3.org/TR/2001/REC-SVG-20010904/DTD/svg10.dtd">
<svg version="1.0" xmlns="http://www.w3.org/2000/svg"
 width="900.000000pt" height="350.000000pt" viewBox="0 0 900.000000 350.000000"
 preserveAspectRatio="xMidYMid meet">

<g transform="translate(0.000000,350.000000) scale(0.100000,-0.100000)"
fill="#000000" stroke="none">
<path d="M0 1750 l0 -1750 4500 0 4500 0 0 1750 0 1750 -4500 0 -4500 0 0
-1750z m1795 1536 c33 -38 91 -64 175 -76 79 -12 285 -78 365 -116 83 -41 149
-91 247 -190 59 -59 108 -113 108 -118 0 -6 18 -38 40 -71 40 -61 57 -112 46
-141 -5 -13 -15 -9 -59 22 -28 21 -56 44 -62 50 -12 15 -85 64 -95 64 -4 0 -7
-20 -6 -44 0 -46 -16 -76 -41 -76 -8 0 -42 29 -75 65 -34 36 -67 65 -75 65 -8
0 -27 7 -42 14 -27 14 -29 14 -50 -15 -27 -36 -58 -37 -97 -4 -16 14 -32 25
-35 25 -16 0 -15 -47 3 -142 10 -57 21 -137 22 -178 2 -41 4 -83 4 -92 3 -34
61 -47 149 -35 77 10 82 9 114 -14 55 -39 67 -59 74 -129 11 -126 63 -248 127
-300 22 -18 23 -22 14 -165 -12 -193 -27 -242 -122 -381 -46 -69 -94 -123 -94
-106 0 5 9 17 21 28 26 24 50 68 46 86 -2 7 -2 9 1 5 5 -10 42 22 42 36 0 5
-7 3 -17 -4 -9 -8 -14 -9 -12 -4 20 44 34 65 45 65 17 0 27 32 12 42 -12 7 -4
12 15 9 5 -1 6 3 3 8 -4 5 0 12 6 14 7 3 3 6 -9 6 -21 1 -21 3 -7 29 27 51 16
80 -22 55 -19 -12 -22 -19 -14 -33 8 -15 6 -20 -11 -25 -13 -5 -18 -12 -14
-22 5 -13 3 -14 -10 -3 -15 12 -14 15 7 26 18 11 19 13 6 14 -19 0 -26 20 -7
20 5 0 7 5 4 10 -8 13 16 38 32 33 6 -2 11 2 9 9 -2 19 -28 78 -33 78 -14 0
-42 -49 -43 -72 0 -28 -14 -45 -24 -29 -3 5 7 34 24 65 l29 56 -27 33 c-15 17
-47 58 -71 90 -31 40 -50 57 -66 57 -13 0 -26 7 -29 15 -4 12 -10 13 -25 5
-24 -12 -55 -3 -43 14 22 29 7 59 -93 183 -56 70 -99 130 -93 132 5 2 23 -10
39 -25 20 -19 38 -28 55 -26 29 4 32 -6 3 -16 l-20 -8 21 -27 c18 -23 25 -25
42 -16 11 6 22 8 25 6 2 -3 -5 -10 -16 -17 -30 -16 -26 -29 24 -80 49 -48 63
-48 46 1 -17 48 -4 48 15 0 17 -43 34 -54 34 -21 0 24 21 70 32 70 4 0 8 7 8
15 0 19 -43 37 -67 29 -15 -5 -16 -4 -3 5 29 21 71 12 113 -24 22 -19 42 -33
45 -31 2 3 -1 21 -8 41 -7 20 -9 52 -6 71 5 22 3 34 -4 34 -6 0 -9 4 -6 9 3 4
-3 16 -14 26 -23 20 -75 25 -135 13 -47 -11 -135 -16 -152 -10 -7 2 -11 8 -8
12 3 5 -2 16 -11 25 -13 13 -14 21 -4 44 15 37 19 159 8 225 -5 28 -10 57 -10
64 -1 8 -11 20 -24 28 -12 8 -25 25 -28 38 -3 12 -16 36 -28 51 -18 23 -22 42
-23 96 0 51 -4 72 -19 88 -11 12 -17 24 -13 27 11 11 229 -20 257 -37 17 -11
40 -43 59 -83 22 -47 36 -66 50 -66 24 0 34 25 21 50 -7 13 -7 21 0 25 6 4 21
-16 34 -44 36 -79 68 -121 93 -121 12 0 25 6 30 13 11 18 14 87 3 87 -6 0 -10
-12 -10 -26 0 -14 -4 -23 -9 -19 -18 10 -71 95 -60 95 31 0 122 -57 176 -110
35 -35 67 -59 73 -55 6 4 9 13 6 21 -3 8 0 14 7 14 7 0 4 5 -6 11 -9 6 -15 14
-12 20 4 5 0 9 -8 9 -18 0 -30 42 -16 51 6 3 -1 9 -15 13 -14 3 -26 13 -26 21
0 7 -8 16 -18 20 -11 3 -24 17 -31 31 -6 14 -16 22 -21 19 -5 -3 -26 10 -46
29 -20 20 -60 50 -88 67 -28 18 -62 39 -76 48 -21 14 -105 53 -175 82 -46 19
-143 47 -185 54 -25 4 -55 13 -67 21 -12 8 -31 14 -41 14 -33 0 -88 28 -105
53 -16 25 -40 32 -159 43 l-57 5 -14 -34 c-20 -47 -58 -73 -116 -81 -27 -4
-74 -17 -103 -30 -74 -33 -412 -196 -417 -202 -3 -3 8 -15 24 -28 25 -20 30
-31 29 -66 -1 -24 -10 -53 -21 -68 -21 -28 -43 -40 -43 -23 0 15 -60 101 -70
101 -19 0 -59 -23 -65 -37 -3 -9 4 -30 15 -48 11 -17 17 -35 13 -38 -3 -4 0
-13 7 -22 11 -13 8 -15 -17 -15 -16 0 -39 7 -52 16 -33 23 -45 6 -44 -64 1
-91 68 -196 134 -209 31 -6 38 -18 17 -27 -7 -3 -2 -4 11 -3 18 1 27 11 37 40
13 37 8 47 -14 25 -13 -13 -17 -11 -26 17 -9 31 6 46 38 37 24 -7 38 -25 77
-101 37 -72 47 -100 42 -123 -5 -23 -2 -30 14 -34 18 -5 19 -11 13 -46 -6 -32
-4 -50 12 -80 11 -21 19 -40 17 -42 -2 -2 -12 -8 -23 -13 -18 -10 -47 -77 -68
-158 -6 -22 -17 -53 -26 -69 -20 -39 -32 -95 -21 -102 10 -5 24 24 33 68 7 32
51 86 62 76 4 -4 -5 -20 -19 -34 -15 -15 -28 -34 -29 -43 -2 -24 -5 -54 -7
-75 0 -11 -6 -16 -15 -13 -9 4 -15 -5 -19 -28 -3 -19 -22 -55 -41 -81 -20 -26
-36 -57 -36 -70 0 -28 3 -29 36 -7 14 9 40 16 58 15 32 -1 33 0 30 30 -5 39
31 85 53 67 31 -27 0 -110 -60 -158 -23 -18 -54 -52 -70 -75 -25 -38 -26 -41
-8 -44 19 -3 18 -5 -5 -58 -29 -66 -29 -64 -4 -64 27 0 25 -14 -10 -84 -35
-70 -28 -86 24 -55 34 20 38 20 61 5 20 -13 25 -25 27 -64 0 -26 0 -55 0 -66
-2 -12 3 -16 13 -12 18 6 19 2 5 -25 -17 -31 -2 -41 31 -22 16 10 29 21 29 26
0 4 5 5 10 2 6 -3 10 -14 10 -24 0 -9 14 -28 31 -40 l32 -23 -5 -106 c-5 -117
-5 -117 50 -18 12 22 22 36 22 30 0 -20 -22 -74 -30 -74 -4 0 -10 -9 -13 -21
-3 -11 -15 -23 -26 -26 -24 -6 -36 -34 -20 -44 7 -4 27 -5 45 -2 18 3 49 2 69
-1 31 -6 36 -11 32 -28 -5 -18 -4 -19 12 -4 21 19 46 22 34 4 -9 -16 -4 -134
8 -165 19 -50 66 -19 93 62 14 40 95 137 107 129 5 -3 9 -15 9 -27 0 -12 7
-31 15 -41 12 -15 12 -22 3 -27 -19 -12 16 -23 47 -15 23 6 69 45 61 53 -2 2
-19 -5 -37 -16 -39 -24 -54 -27 -42 -8 10 15 10 18 12 67 1 48 12 51 29 8 11
-31 12 -31 32 -13 11 10 20 26 20 37 0 31 17 20 34 -23 14 -34 19 -39 31 -29
8 7 12 17 8 23 -3 6 -1 7 6 3 8 -5 5 -16 -9 -37 -12 -16 -16 -29 -10 -29 6 0
8 -5 5 -10 -3 -6 -2 -10 2 -10 5 0 15 -21 22 -46 8 -26 18 -43 25 -41 7 3 20
-1 31 -9 22 -16 49 -19 40 -4 -3 6 1 10 10 10 9 0 13 -5 10 -10 -7 -11 9 -13
43 -4 12 4 22 11 22 16 0 6 -7 8 -15 4 -8 -3 -15 -4 -15 -2 0 2 29 18 65 35
38 17 65 36 65 45 0 10 6 13 15 10 8 -4 15 -1 15 5 0 6 5 11 11 11 6 0 1 -14
-11 -30 -30 -43 -11 -37 23 7 34 45 34 75 2 117 -14 18 -25 38 -25 44 0 7 -4
12 -10 12 -5 0 -10 5 -10 11 0 6 -41 77 -91 157 -97 155 -102 162 -136 197
-30 30 -29 33 12 41 40 7 42 11 18 31 -16 13 -15 14 12 7 17 -3 54 -6 84 -5
30 1 57 -3 60 -8 6 -10 102 16 117 32 5 4 0 5 -11 2 -19 -6 -19 -6 -2 5 36 23
75 29 88 14 7 -8 18 -13 26 -10 8 3 13 -2 13 -14 0 -11 5 -20 11 -20 6 0 9 7
5 15 -3 9 3 19 16 26 11 6 18 7 15 2 -4 -6 3 -20 14 -31 18 -20 18 -22 2 -23
-32 -2 -78 3 -88 9 -20 12 -93 0 -202 -34 -62 -20 -115 -39 -118 -44 -3 -5 8
-28 23 -52 16 -24 40 -63 53 -88 13 -25 34 -59 46 -76 12 -16 31 -50 42 -75
11 -24 36 -66 55 -94 20 -27 36 -60 36 -73 0 -96 -218 -222 -354 -205 -31 4
-37 3 -31 -8 6 -11 5 -11 -5 -2 -7 7 -26 40 -41 75 -15 35 -35 64 -43 66 -9 2
-28 -6 -42 -17 -20 -15 -41 -21 -80 -21 -53 0 -54 0 -73 -42 -18 -40 -81 -92
-131 -110 -42 -15 -75 24 -85 101 -9 71 -17 91 -47 116 -21 18 -41 25 -71 25
-23 0 -48 4 -55 9 -25 15 -28 72 -10 159 25 115 13 135 -92 147 -30 3 -57 8
-60 11 -3 3 -5 33 -6 67 0 85 -10 110 -37 100 -12 -4 -38 -7 -57 -8 -28 0 -37
5 -48 27 -11 24 -10 32 8 67 20 41 26 71 13 71 -5 0 -16 7 -26 14 -18 14 -18
16 1 53 11 21 17 43 15 50 -2 7 9 32 26 57 42 60 40 82 -6 103 -57 27 -57 71
-3 133 34 39 36 46 45 140 4 39 17 89 34 125 69 146 78 171 91 245 6 30 4 65
-5 105 -8 33 -16 76 -19 95 -5 30 -44 90 -58 90 -3 0 -8 -13 -11 -30 -6 -27
-9 -29 -39 -23 -72 13 -137 59 -180 126 -26 40 -31 58 -31 105 1 65 16 129 37
157 13 17 18 18 35 8 29 -18 33 -16 21 6 -5 11 -10 26 -10 34 0 15 95 97 112
97 5 0 23 -23 40 -51 29 -45 33 -49 45 -33 15 21 5 42 -37 77 l-29 25 47 30
c67 44 242 131 267 135 11 1 48 15 80 31 72 34 89 41 138 56 20 6 37 16 37 21
0 6 9 9 20 7 10 -2 20 0 20 4 3 14 78 86 96 91 11 3 64 3 119 1 100 -4 100 -4
130 -38z m-165 -71 c34 -36 21 -39 -30 -5 -41 27 -43 30 -19 30 14 0 36 -11
49 -25z m-90 -18 c0 -2 -15 -16 -32 -33 l-33 -29 29 33 c28 30 36 37 36 29z
m420 -54 c25 -9 59 -22 77 -29 17 -8 43 -14 57 -14 14 0 35 -10 47 -22 12 -13
18 -17 14 -9 -6 11 -4 13 9 8 10 -4 22 -7 27 -7 4 0 6 -7 3 -15 -5 -11 -2 -13
11 -9 9 4 28 1 43 -6 81 -38 129 -65 142 -80 8 -9 23 -19 32 -23 10 -3 15 -12
13 -19 -6 -16 -64 -21 -81 -7 -7 6 -21 9 -31 8 -31 -4 -54 12 -48 31 5 16 0
18 -45 16 -28 -2 -53 1 -56 6 -3 4 -16 8 -30 8 -31 0 -66 18 -59 30 3 5 0 12
-6 16 -8 4 -9 3 -5 -4 11 -17 -9 -15 -24 3 -15 18 -61 20 -79 3 -10 -11 -16
-9 -28 10 -9 12 -26 22 -39 22 -13 0 -24 4 -24 8 0 26 317 -52 328 -80 2 -4 7
-6 11 -3 11 6 85 -15 92 -28 8 -12 39 -2 39 13 0 6 -13 16 -30 21 -16 6 -30
15 -30 21 0 5 -4 7 -9 3 -9 -5 -110 24 -156 45 -11 5 -36 11 -55 14 -19 3 -53
10 -75 15 -22 6 -61 11 -87 11 -36 0 -48 4 -48 15 0 8 -9 20 -20 27 -11 7 -20
17 -20 21 0 11 84 -1 140 -20z m-560 -3 c0 -5 -5 -10 -11 -10 -5 0 -7 5 -4 10
3 6 8 10 11 10 2 0 4 -4 4 -10z m70 -13 c0 -2 -12 -14 -27 -28 l-28 -24 24 28
c23 25 31 32 31 24z m915 -17 c3 -5 1 -10 -4 -10 -6 0 -11 5 -11 10 0 6 2 10
4 10 3 0 8 -4 11 -10z m-1143 -48 c-44 -41 -53 -55 -27 -46 8 4 15 2 15 -4 0
-5 -9 -12 -20 -15 -13 -3 -18 -11 -14 -20 6 -16 -42 -38 -73 -32 -10 2 -21 4
-25 4 -5 1 -9 9 -9 19 -1 16 -2 16 -6 0 -5 -19 -18 -24 -28 -9 -3 6 -17 6 -35
1 -38 -11 -40 7 -2 20 15 6 36 15 47 22 48 28 105 57 105 53 0 -3 16 4 37 15
20 10 40 17 44 14 4 -2 10 0 14 6 3 5 9 10 12 10 4 0 -12 -17 -35 -38z m529
-67 c17 -33 37 -67 44 -75 22 -26 67 -122 60 -128 -3 -4 -10 0 -15 8 -10 16
-69 19 -114 7 -26 -7 -28 -6 -17 7 9 11 31 16 67 16 30 0 54 4 54 9 0 11 -68
112 -84 126 -12 11 -37 60 -56 110 l-10 30 19 -25 c11 -14 34 -52 52 -85z
m-525 38 c-10 -10 -19 5 -10 18 6 11 8 11 12 0 2 -7 1 -15 -2 -18z m-226 -153
c0 -5 -4 -10 -10 -10 -5 0 -10 5 -10 10 0 6 5 10 10 10 6 0 10 -4 10 -10z
m959 7 c-2 -1 -13 -9 -24 -17 -19 -14 -19 -14 -6 3 7 9 18 17 24 17 6 0 8 -1
6 -3z m-952 -67 c-1 -17 -9 -31 -19 -33 -14 -4 -15 -1 -7 22 6 14 10 27 10 29
-4 12 1 22 9 17 5 -3 8 -19 7 -35z m703 20 c0 -5 -7 -7 -16 -3 -9 3 -19 1 -23
-5 -3 -6 -19 -8 -36 -4 l-30 6 25 7 c37 11 80 10 80 -1z m-131 -26 c2 -2 -4
-7 -13 -10 -11 -4 -24 0 -34 10 -16 16 -15 17 13 10 17 -4 32 -8 34 -10z
m-371 -49 c-3 -3 -9 2 -12 12 -6 14 -5 15 5 6 7 -7 10 -15 7 -18z m488 10 c11
-10 21 -12 39 -5 15 6 27 6 30 0 3 -5 23 -14 44 -20 58 -15 82 -47 88 -122 4
-34 12 -72 19 -83 11 -17 9 -28 -14 -75 -15 -30 -35 -56 -45 -58 -12 -2 -15 1
-11 12 8 21 -22 21 -42 1 -9 -9 -25 -12 -43 -9 -26 6 -29 3 -36 -32 -4 -25 -3
-40 4 -42 20 -7 11 -20 -9 -15 -11 3 -20 12 -20 19 0 16 -12 18 -26 4 -7 -7
-15 2 -26 25 -8 19 -12 35 -7 35 5 0 9 -4 9 -10 0 -14 27 -12 36 2 15 23 3 79
-26 129 -17 27 -30 56 -30 64 0 7 -7 21 -16 29 -8 9 -12 20 -9 26 9 15 25 2
36 -28 7 -19 12 -23 18 -13 12 18 23 -14 15 -43 -4 -16 0 -25 10 -29 10 -4 16
-1 16 9 0 18 34 11 61 -12 16 -15 77 -19 95 -6 5 4 16 21 23 39 16 39 2 92
-35 128 -48 48 -123 45 -168 -6 -15 -16 -30 -27 -35 -25 -4 3 -9 28 -10 55 -1
38 3 52 16 60 24 14 32 13 49 -4z m-528 -77 c-9 -23 -32 -60 -52 -81 -43 -45
-48 -77 -12 -77 27 0 36 -21 36 -90 0 -26 4 -50 9 -55 5 -6 14 -34 20 -63 6
-30 22 -73 36 -96 24 -41 33 -86 18 -86 -5 0 -21 23 -38 51 -16 28 -49 66 -72
85 -24 20 -43 44 -43 54 0 11 12 44 27 75 l27 55 -21 21 c-14 14 -27 19 -41
15 -25 -8 -35 -43 -15 -55 13 -7 13 -12 3 -31 -9 -18 -14 -20 -21 -9 -4 7 -4
18 2 25 10 12 -18 44 -30 34 -8 -7 -70 113 -64 123 3 5 6 22 7 39 2 25 -2 32
-26 40 -15 6 -28 14 -28 20 0 6 8 7 18 3 33 -14 91 -17 119 -8 15 6 36 7 46 4
17 -6 17 -8 -6 -26 -14 -10 -23 -24 -20 -32 8 -20 72 45 66 67 -3 10 3 32 13
49 18 31 19 31 37 12 18 -18 19 -22 5 -63z m697 72 c3 -5 -1 -10 -9 -10 -9 0
-16 5 -16 10 0 6 4 10 9 10 6 0 13 -4 16 -10z m-865 -42 c0 -5 -4 -8 -10 -8
-5 0 -9 6 -7 13 1 6 -6 11 -15 11 -21 -2 -24 12 -5 19 11 4 36 -20 37 -35z
m-131 -26 c-5 -2 -9 -11 -9 -20 0 -29 -17 2 -24 43 l-7 40 25 -30 c13 -16 20
-31 15 -33z m661 49 c0 -6 12 -6 32 0 17 5 33 7 36 5 2 -3 6 -22 9 -45 5 -37
3 -41 -21 -47 -18 -4 -33 -1 -45 10 -28 25 -115 22 -141 -6 -31 -34 -29 -130
5 -163 31 -32 69 -32 102 1 30 30 83 50 83 31 0 -7 -5 -32 -11 -57 -13 -58 -5
-88 26 -96 16 -4 25 -13 25 -25 0 -10 5 -19 10 -19 6 0 10 -4 10 -10 0 -16
-14 -12 -38 10 -26 24 -32 25 -32 4 0 -14 -3 -14 -15 -4 -13 11 -13 15 -3 21
10 6 10 11 1 20 -8 8 -16 8 -33 -1 -14 -8 -26 -8 -32 -2 -5 5 -29 7 -54 4 -25
-2 -44 0 -44 5 0 5 -11 15 -24 21 -29 13 -42 47 -26 67 9 10 10 42 5 109 -7
94 -7 96 16 106 13 6 38 18 54 28 28 18 80 39 98 41 4 1 7 -3 7 -8z m428 -84
c20 -33 28 -55 24 -74 -5 -25 -6 -26 -13 -8 -4 11 -10 32 -13 47 -3 14 -22 47
-42 73 -29 38 -31 43 -11 28 14 -10 38 -39 55 -66z m32 62 c0 -6 -4 -7 -10 -4
-5 3 -10 11 -10 16 0 6 5 7 10 4 6 -3 10 -11 10 -16z m-1276 -42 c10 -7 35
-12 56 -11 26 1 41 -3 44 -13 9 -22 -2 -32 -29 -27 -14 2 -25 0 -25 -6 0 -6 4
-9 9 -5 6 3 9 -3 8 -14 -1 -11 -6 -17 -14 -14 -9 4 -11 0 -7 -11 4 -10 1 -16
-7 -16 -11 0 -11 -2 -1 -9 10 -6 10 -10 -2 -20 -12 -10 -17 -9 -25 8 -6 11 -8
27 -4 37 4 11 3 15 -5 10 -15 -9 -23 8 -27 59 -3 48 1 52 29 32z m1340 -73 c3
-8 2 -12 -4 -9 -6 3 -13 -1 -16 -9 -3 -9 -10 -13 -15 -10 -10 6 7 44 20 44 5
0 12 -7 15 -16z m-833 -45 c-12 -19 -21 -30 -21 -26 0 14 31 69 36 64 3 -3 -4
-20 -15 -38z m389 20 c0 -18 -2 -19 -15 -5 -8 8 -15 17 -15 20 0 3 7 6 15 6 9
0 15 -9 15 -21z m1034 -73 c-3 -9 -10 -16 -15 -16 -5 0 -4 9 3 20 14 22 21 20
12 -4z m-583 -47 c-25 -41 -28 -23 -3 25 9 19 18 28 20 21 2 -7 -6 -28 -17
-46z m-1271 36 c0 -9 -6 -12 -15 -9 -8 4 -12 10 -9 15 8 14 24 10 24 -6z
m1164 -32 c-7 -2 -10 -12 -7 -22 5 -20 -25 -87 -34 -77 -3 3 -1 12 6 20 7 8 9
25 6 39 -7 24 21 65 34 51 3 -4 1 -9 -5 -11z m47 -26 c-10 -9 -11 -8 -5 6 3
10 9 15 12 12 3 -3 0 -11 -7 -18z m10 -94 c-11 -21 -20 -35 -21 -31 0 12 33
78 38 74 2 -2 -6 -21 -17 -43z m-154 -11 c-8 -11 -12 -10 -20 3 -5 9 -6 23 -3
32 6 14 8 14 20 -3 11 -14 11 -22 3 -32z m-107 28 c0 -5 -4 -10 -10 -10 -5 0
-10 5 -10 10 0 6 5 10 10 10 6 0 10 -4 10 -10z m39 -26 c-15 -18 -22 -13 -13
10 3 9 10 13 16 10 5 -3 4 -12 -3 -20z m-329 -26 c0 -11 8 -22 19 -25 13 -3
21 -17 26 -41 4 -20 11 -44 16 -54 21 -39 137 -66 184 -42 14 7 32 11 39 8 7
-3 18 2 25 10 11 13 8 15 -22 11 -29 -4 -34 -2 -30 13 3 12 14 17 36 17 18 0
35 -3 38 -8 8 -11 69 22 69 38 0 8 -7 18 -15 23 -14 7 -12 11 7 28 18 15 20
15 9 2 -10 -13 -10 -18 -2 -18 7 0 9 -4 6 -10 -9 -14 8 -12 25 3 8 6 7 3 -2
-8 -10 -12 -15 -30 -12 -42 3 -12 1 -30 -6 -40 -10 -16 -10 -16 -5 4 9 34 -9
35 -30 1 -11 -16 -44 -43 -72 -60 -29 -16 -53 -34 -53 -39 0 -5 -9 -9 -20 -9
-11 0 -20 5 -20 10 0 6 -4 10 -10 10 -5 0 -10 -7 -10 -15 0 -28 -40 -22 -96
12 -36 23 -42 32 -54 87 -7 34 -24 77 -37 96 -23 35 -32 77 -13 65 6 -3 10
-15 10 -27z m39 25 c0 -5 -4 -17 -9 -28 -8 -18 -9 -17 -9 8 -1 15 4 27 9 27 6
0 10 -3 9 -7z m199 -55 c-2 -19 -9 -23 -38 -23 -19 0 -37 6 -40 12 -4 10 -12
9 -34 -2 -32 -17 -39 -16 -27 4 11 18 63 23 74 8 7 -9 10 -9 13 0 3 7 12 9 20
6 8 -3 14 0 14 6 0 6 5 11 11 11 6 0 9 -10 7 -22z m68 6 c-3 -9 -6 -18 -6 -20
0 -2 -4 -4 -9 -4 -5 0 -7 9 -4 20 3 11 10 20 15 20 6 0 7 -7 4 -16z m216 -6
c-7 -7 -12 -8 -12 -2 0 6 3 14 7 17 3 4 9 5 12 2 2 -3 -1 -11 -7 -17z m-743
-53 c0 -11 -25 20 -41 50 -5 11 2 7 16 -10 14 -16 25 -34 25 -40z m487 38
c-10 -10 -19 5 -10 18 6 11 8 11 12 0 2 -7 1 -15 -2 -18z m94 -32 c0 -6 -4
-13 -10 -16 -5 -3 -10 1 -10 9 0 9 5 16 10 16 6 0 10 -4 10 -9z m560 -21 c0
-6 -26 -10 -60 -9 -60 2 -90 -11 -90 -37 0 -8 -4 -14 -10 -14 -5 0 -10 5 -10
10 0 6 -10 10 -22 10 -15 1 -4 9 32 25 56 24 160 34 160 15z m-757 -16 c38 1
47 -2 47 -16 0 -11 -5 -15 -15 -12 -8 4 -15 1 -15 -5 0 -8 -6 -8 -17 -2 -10 6
-30 12 -45 16 -17 3 -28 12 -28 21 0 12 3 14 13 6 6 -5 33 -9 60 -8z m318 -11
c-5 -10 -21 -43 -35 -73 -13 -30 -37 -66 -52 -80 l-27 -25 25 35 c14 19 40 66
57 104 17 38 34 67 37 64 3 -4 1 -14 -5 -25z m-244 -5 c-3 -8 -6 -5 -6 6 -1
11 2 17 5 13 3 -3 4 -12 1 -19z m-367 -50 c0 -6 -6 -5 -15 2 -8 7 -15 14 -15
16 0 2 7 1 15 -2 8 -4 15 -11 15 -16z m691 -27 c-57 -56 -67 -79 -23 -58 53
26 112 41 123 30 6 -6 -10 -14 -48 -22 -49 -11 -80 -22 -135 -49 -4 -2 0 11 9
29 18 37 97 119 113 119 6 0 -11 -22 -39 -49z m-764 -8 c-3 -10 -5 -4 -5 12 0
17 2 24 5 18 2 -7 2 -21 0 -30z m162 -39 c14 -12 -19 -1 -35 12 -18 14 -18 14
6 3 14 -6 27 -13 29 -15z m364 6 c3 -10 -1 -24 -9 -31 -8 -6 -14 -17 -14 -25
0 -7 -17 -26 -37 -41 -21 -15 -40 -31 -43 -34 -3 -4 -38 -23 -79 -43 -40 -21
-89 -54 -107 -74 -19 -20 -34 -32 -34 -27 0 23 67 78 138 114 105 53 153 96
157 141 5 43 3 40 14 40 5 0 11 -9 14 -20z m1421 -11 c16 -10 33 -16 38 -13 5
3 15 0 23 -6 11 -9 15 -35 15 -97 l0 -84 -37 3 -38 3 -5 60 c-3 33 -9 66 -13
73 -12 17 -67 15 -89 -5 -48 -43 3 -153 71 -153 22 0 31 -5 31 -16 0 -10 20
-38 44 -64 69 -74 81 -141 42 -226 -56 -121 -173 -138 -265 -39 -35 38 -41 51
-41 87 0 24 -3 53 -6 65 -5 18 0 25 32 38 21 8 42 14 48 12 7 -2 10 -30 8 -74
-3 -66 -2 -71 24 -92 80 -63 152 30 91 120 -18 27 -30 35 -60 37 -25 2 -37 8
-37 18 0 8 -22 39 -49 67 -55 59 -74 110 -62 172 14 74 44 109 113 130 48 15
78 11 122 -16z m359 22 c64 -24 123 -119 134 -213 3 -26 14 -56 25 -67 17 -19
17 -23 4 -43 -8 -13 -20 -57 -27 -98 -17 -99 -40 -150 -89 -194 -45 -40 -89
-47 -140 -21 -54 28 -102 125 -115 235 -4 30 -14 63 -22 72 -14 16 -14 20 0
41 8 12 20 49 27 81 21 103 55 161 114 197 35 21 54 23 89 10z m881 -26 c21
-14 29 -15 41 -5 20 17 24 4 28 -102 l4 -88 -35 -6 c-43 -8 -51 4 -45 67 4 39
1 51 -16 68 -45 45 -111 12 -111 -55 0 -45 53 -104 94 -104 16 0 26 -6 26 -14
0 -8 18 -36 41 -62 49 -56 59 -81 59 -140 0 -87 -62 -169 -143 -189 -39 -10
-106 17 -147 60 -29 30 -34 43 -38 97 -2 35 -9 68 -14 75 -13 16 0 36 18 29 8
-3 26 0 39 6 22 10 29 9 43 -6 12 -14 14 -20 5 -23 -8 -3 -13 -24 -13 -58 0
-47 4 -56 31 -79 65 -55 117 -15 110 85 -2 29 -57 79 -85 79 -20 0 -29 7 -37
27 -5 15 -26 41 -46 59 -84 74 -73 232 20 280 67 35 116 35 171 -1z m605 21
c64 -34 109 -113 126 -223 4 -22 15 -49 26 -59 19 -17 19 -18 1 -38 -11 -13
-24 -52 -31 -100 -17 -104 -40 -156 -89 -194 -31 -25 -50 -32 -82 -32 -37 0
-49 6 -85 43 -47 47 -85 145 -85 222 0 29 -6 47 -20 60 -19 17 -19 18 0 43 11
13 20 35 20 47 0 13 9 52 20 87 14 47 30 73 62 104 60 58 87 65 137 40z m2420
-15 c49 -35 66 -69 66 -130 0 -48 -5 -65 -30 -101 -23 -32 -27 -44 -16 -48 39
-13 48 -38 53 -150 4 -82 10 -115 21 -127 22 -21 12 -40 -29 -60 -36 -17 -45
-15 -81 18 -21 18 -23 30 -23 112 0 51 -3 107 -6 124 -6 28 -10 31 -45 31
l-39 0 -1 -47 c-3 -96 2 -178 11 -187 6 -6 10 -20 10 -32 0 -27 -31 -40 -60
-24 -14 8 -26 8 -40 0 -28 -15 -64 8 -54 35 4 11 9 70 10 130 3 97 1 113 -17
138 -19 27 -19 27 0 55 17 24 18 38 13 136 -8 124 -1 148 40 129 18 -8 30 -8
44 0 26 15 93 26 124 20 14 -2 36 -12 49 -22z m919 17 c7 -7 8 -16 2 -23 -5
-7 -12 -60 -14 -118 -3 -94 -2 -110 15 -131 23 -29 24 -40 4 -56 -12 -10 -15
-39 -15 -142 0 -121 1 -130 20 -135 25 -7 26 -19 3 -32 -23 -12 -143 -12 -165
0 -21 12 -24 29 -4 29 16 0 26 33 21 70 -2 14 -4 62 -4 106 -1 78 -2 82 -25
88 -13 3 -38 3 -55 0 l-31 -6 0 -114 c0 -69 5 -122 12 -133 23 -38 5 -50 -71
-47 -78 2 -103 15 -81 41 20 25 15 253 -7 277 -13 15 -13 19 1 40 22 31 23
196 1 238 -20 38 -10 43 81 47 53 1 75 -2 84 -12 10 -12 9 -16 -4 -21 -13 -5
-16 -24 -16 -114 l0 -108 28 -4 c15 -2 38 -1 52 2 24 6 25 8 28 110 2 73 -1
106 -9 111 -23 14 10 38 59 42 26 2 54 4 63 5 8 1 20 -3 27 -10z m240 -10 c17
-14 15 -38 -3 -52 -14 -10 -14 -16 1 -59 9 -26 20 -49 24 -52 5 -3 18 21 30
52 14 37 18 59 11 61 -6 2 -11 10 -11 17 0 39 106 46 139 11 l21 -22 -30 -29
c-17 -16 -30 -33 -30 -38 0 -5 -14 -37 -32 -73 -28 -56 -30 -66 -19 -88 12
-21 11 -28 -8 -52 -17 -24 -21 -45 -22 -132 -1 -66 3 -108 10 -115 52 -52 -91
-89 -163 -42 -32 21 -32 23 -1 35 l25 10 -6 117 c-5 94 -10 122 -24 138 -14
15 -16 24 -9 38 7 12 7 29 -2 55 -21 67 -70 167 -84 175 -23 12 -18 24 17 41
20 10 43 14 64 10 19 -3 34 -1 39 6 7 11 41 5 63 -12z m-4729 -25 c37 -34 46
-52 85 -173 l45 -135 0 139 c1 119 -2 142 -16 159 -17 18 -17 19 0 32 21 15
103 17 130 3 17 -9 17 -10 -3 -35 -17 -22 -20 -40 -20 -117 0 -79 3 -95 21
-114 l20 -22 -21 -27 c-18 -24 -21 -38 -19 -135 2 -89 5 -113 21 -133 18 -23
18 -24 -4 -39 -30 -21 -91 -20 -117 2 -13 11 -39 74 -72 172 -28 85 -55 159
-60 165 -15 15 -5 -255 10 -283 20 -37 -1 -53 -59 -47 -55 5 -80 14 -80 26 0
5 7 12 15 15 23 9 22 230 -1 262 -15 21 -15 25 0 41 12 14 16 40 16 119 0 94
-2 102 -22 113 l-21 11 24 19 c39 30 81 24 128 -18z m1410 25 c15 -9 25 -9 46
0 36 16 108 15 152 -3 19 -8 44 -15 54 -15 19 0 21 -8 21 -110 0 -78 -1 -80
-27 -80 -23 0 -25 4 -25 44 0 56 -42 106 -89 106 -47 0 -63 -32 -59 -121 l3
-74 38 -3 c28 -2 37 0 37 12 0 19 16 21 26 4 15 -24 13 -96 -2 -109 -13 -10
-17 -10 -23 0 -5 7 -22 11 -42 9 l-34 -3 -1 -110 c0 -109 0 -110 28 -137 l29
-27 -39 -12 c-29 -8 -44 -8 -60 0 -14 7 -23 8 -27 1 -9 -14 -38 -12 -60 4 -18
13 -18 15 -2 30 23 24 19 248 -5 273 -15 15 -15 18 0 40 12 19 15 48 14 125 0
56 -5 105 -11 111 -22 22 -6 46 37 56 1 1 11 -4 21 -11z m843 -13 c-15 -87 6
-226 39 -262 20 -20 21 -26 10 -46 -17 -32 21 -255 46 -275 27 -20 1 -35 -67
-38 -61 -2 -80 7 -61 29 7 9 6 34 -4 81 -8 38 -16 70 -17 71 -2 2 -23 5 -48 6
-44 4 -45 4 -59 -36 -8 -22 -14 -66 -14 -97 0 -54 -2 -58 -23 -58 -13 0 -26 5
-30 11 -4 8 -9 8 -17 0 -16 -16 -47 -14 -47 3 0 7 7 29 15 48 8 19 24 78 36
132 19 83 21 99 9 121 -12 23 -11 28 12 53 36 37 74 205 52 227 -8 7 -14 18
-14 23 0 22 77 31 97 11 8 -8 17 -7 35 5 29 21 54 16 50 -9z m268 10 c54 -28
71 -61 126 -250 9 -33 21 -64 26 -69 4 -6 8 51 8 126 0 108 -3 140 -15 152 -8
8 -15 19 -15 24 0 13 50 33 63 25 6 -4 26 -6 44 -4 39 3 54 -20 29 -44 -24
-24 -23 -201 1 -227 17 -19 17 -21 0 -50 -23 -41 -25 -259 -2 -278 8 -7 15
-16 15 -20 0 -11 -49 -30 -79 -30 -56 0 -76 29 -126 188 -25 81 -50 156 -55
167 -6 13 -9 -28 -9 -119 -1 -116 2 -142 15 -158 14 -14 14 -20 4 -33 -9 -11
-27 -14 -69 -11 -31 2 -57 5 -58 5 -6 2 -3 38 3 44 4 3 7 56 8 118 2 92 -1
116 -15 133 -16 19 -16 22 2 45 25 31 28 201 4 225 -21 20 -19 31 8 44 31 15
53 14 87 -3z m526 1 c17 -12 22 -12 39 0 10 8 27 14 37 14 21 0 38 -32 20 -38
-27 -9 4 -211 37 -246 18 -19 19 -26 10 -52 -9 -23 -7 -54 14 -159 27 -137 25
-165 -14 -144 -13 6 -25 6 -38 -1 -24 -12 -32 -12 -51 0 -13 8 -12 11 3 22 17
13 17 17 2 86 -9 40 -20 72 -23 73 -4 0 -26 2 -49 5 -46 5 -43 10 -64 -88 -10
-47 -10 -60 1 -73 12 -14 11 -18 -1 -26 -18 -11 -30 -11 -48 0 -9 6 -22 6 -34
-1 -15 -7 -23 -6 -35 6 -14 14 -14 17 -1 33 19 23 34 69 54 170 13 65 14 86 4
101 -11 17 -9 24 13 50 30 36 63 176 53 229 -9 51 26 70 71 39z m916 0 c15 -8
36 -12 48 -9 19 5 20 1 20 -101 l0 -106 -40 0 -40 0 0 60 c0 65 -21 100 -59
100 -36 0 -45 -27 -45 -129 0 -76 4 -102 18 -124 17 -25 17 -29 2 -46 -22 -24
-23 -157 0 -189 19 -27 35 -28 65 -3 19 15 24 29 24 68 l0 48 38 3 c34 3 37 1
38 -25 3 -78 -3 -98 -38 -135 -58 -60 -127 -62 -182 -6 -32 33 -81 143 -81
182 0 13 -10 36 -22 51 -20 26 -20 28 -5 55 10 15 17 43 17 62 0 86 53 208
103 238 38 23 101 26 139 6z m-6468 -44 c10 -15 40 -45 67 -67 26 -22 48 -48
48 -58 1 -12 -18 2 -55 42 -71 77 -98 111 -87 111 4 0 17 -12 27 -28z m755
-15 c77 -21 57 -49 -35 -51 -27 -1 -56 -11 -83 -29 -23 -15 -54 -30 -70 -33
-33 -7 -77 -49 -83 -79 -2 -12 -13 -21 -26 -23 -30 -4 -52 -54 -45 -101 5 -27
3 -32 -8 -26 -11 6 -11 5 -2 -5 17 -18 47 -4 38 18 -11 26 -8 51 10 79 20 30
24 27 30 -22 3 -20 7 -41 10 -45 3 -5 -15 -21 -39 -36 -44 -28 -47 -35 -31
-82 2 -10 7 -39 9 -66 5 -47 5 -48 -15 -30 -29 26 -61 82 -56 97 4 7 8 3 12
-10 4 -13 14 -23 22 -23 8 0 12 4 9 9 -12 19 -29 67 -30 85 -1 11 -7 21 -13
23 -9 3 -11 -5 -7 -29 7 -36 -9 -30 -20 9 -5 16 -1 26 17 38 18 11 23 22 19
41 -2 14 2 32 10 42 8 9 15 27 16 40 1 19 -3 21 -25 16 l-26 -7 24 43 c29 52
74 92 140 126 63 32 73 25 20 -12 -22 -16 -45 -39 -50 -52 -6 -13 -15 -20 -21
-17 -5 3 -19 1 -30 -5 -18 -10 -19 -13 -6 -25 22 -23 44 -18 61 13 24 44 57
79 62 65 3 -7 13 -13 23 -13 15 0 18 7 17 37 -2 34 1 38 28 44 46 10 96 9 144
-4z m-594 -20 c22 -8 49 -18 60 -22 l20 -7 -20 -8 c-12 -5 -26 -3 -35 5 -8 7
-33 22 -55 34 -42 23 -36 23 30 -2z m122 6 c3 -7 -3 -9 -17 -6 -29 8 -37 25
-9 21 12 -1 24 -8 26 -15z m204 -3 c-25 -21 -41 -26 -41 -11 0 5 12 14 28 19
39 15 40 14 13 -8z m-862 -29 c-15 -33 -26 -40 -26 -16 0 8 6 16 14 19 7 3 13
13 13 22 0 10 3 15 6 11 3 -3 0 -20 -7 -36z m265 -48 c38 -10 68 -22 67 -28
-3 -13 -43 -9 -108 11 -41 13 -53 21 -53 37 0 15 3 17 13 9 7 -6 44 -19 81
-29z m443 -56 c-34 -34 -79 -81 -101 -105 -21 -23 -44 -42 -50 -42 -6 0 1 10
17 21 31 24 35 39 10 39 -12 0 -7 7 15 20 27 16 31 24 22 34 -8 11 -4 19 22
37 22 15 28 17 19 6 -12 -15 -11 -17 2 -17 9 0 20 7 25 15 6 12 61 49 79 54 1
1 -26 -27 -60 -62z m-381 -3 c20 5 24 3 24 -15 0 -18 -4 -20 -37 -15 -21 4
-55 7 -76 8 -30 1 -40 7 -51 28 l-13 27 65 -19 c35 -11 75 -17 88 -14z m887
-13 c12 -10 14 -17 6 -22 -17 -10 -46 1 -53 19 -3 10 -9 23 -12 30 -5 11 -2
11 17 0 13 -7 32 -19 42 -27z m-1159 9 c33 -12 34 -33 3 -25 -32 8 -81 -34
-107 -91 -11 -23 -20 -48 -20 -53 0 -6 -4 -11 -10 -11 -5 0 -13 -15 -18 -32
-5 -18 -15 -32 -22 -30 -7 1 -23 -4 -36 -13 -40 -26 -38 -17 5 23 23 21 41 45
41 54 0 8 7 21 15 28 8 7 15 18 15 26 0 7 6 19 13 26 7 7 18 25 24 41 7 15 24
32 38 39 14 6 25 15 25 20 0 10 3 10 34 -2z m57 -23 c-8 -8 -11 -7 -11 4 0 20
13 34 18 19 3 -7 -1 -17 -7 -23z m909 -2 c0 -16 -6 -25 -15 -25 -8 0 -15 -7
-15 -16 0 -8 5 -12 10 -9 6 3 10 2 10 -4 0 -9 -60 -44 -66 -38 -8 8 18 75 36
95 27 29 40 28 40 -3z m316 -13 c-22 -5 -30 3 -21 18 5 8 11 7 22 -2 15 -12
14 -13 -1 -16z m-1172 -14 c8 -33 7 -38 -6 -35 -8 1 -16 -17 -21 -48 -5 -27
-12 -59 -16 -70 -7 -17 -9 -16 -13 11 -4 31 30 164 43 164 4 0 9 -10 13 -22z
m128 2 c25 -7 44 -8 56 -1 13 7 19 6 19 -2 0 -7 4 -20 8 -31 7 -15 4 -17 -11
-13 -10 4 -45 7 -76 9 -32 2 -58 6 -58 10 0 3 -3 13 -6 22 -7 19 14 21 68 6z
m1104 -77 c3 -46 -16 -148 -32 -175 -4 -7 -23 -31 -41 -54 -35 -43 -40 -60
-22 -66 7 -2 -1 -12 -16 -22 -31 -20 -48 -13 -19 8 10 8 16 18 11 22 -4 4 0
18 8 31 9 14 13 33 9 48 -5 21 -3 25 15 25 23 0 27 20 9 49 -9 15 -8 31 7 77
10 33 18 69 17 82 -1 13 2 20 8 17 6 -3 13 1 16 10 11 28 27 0 30 -52z m-674
22 c3 -14 -1 -30 -9 -36 -11 -10 -12 -7 -9 12 3 13 5 30 5 37 1 20 8 14 13
-13z m535 0 c8 -22 -6 -33 -17 -15 -13 20 -12 30 0 30 6 0 13 -7 17 -15z
m-1073 -19 c-3 -7 6 -21 20 -30 31 -20 33 -45 6 -69 -11 -9 -20 -23 -20 -31 0
-7 -7 -19 -15 -26 -20 -16 -19 -11 5 46 13 29 17 51 12 56 -12 12 -42 -29 -42
-56 0 -11 -3 -17 -6 -13 -8 8 28 147 38 141 4 -3 5 -11 2 -18z m116 5 c29 -8
19 -17 -33 -26 -29 -6 -37 -4 -37 7 0 28 19 33 70 19z m-298 -18 c19 -17 26
-87 9 -98 -6 -3 -8 9 -4 29 4 26 0 39 -16 55 -33 33 -24 46 11 14z m1158 -23
c28 -55 26 -75 -10 -90 -17 -7 -34 -10 -37 -6 -13 13 -19 109 -8 126 13 21 35
8 55 -30z m-558 -104 c38 -60 67 -111 64 -113 -4 -5 -96 131 -96 143 0 5 -12
22 -26 38 -29 33 -70 37 -111 11 -17 -12 -23 -13 -18 -4 20 35 30 40 73 37
l46 -3 68 -109z m408 68 c0 -11 -5 -14 -16 -10 -9 3 -18 6 -20 6 -3 0 -2 5 1
10 10 16 35 12 35 -6z m-480 2 c0 -2 -7 -17 -15 -32 -15 -29 -22 -13 -9 20 5
14 24 23 24 12z m-155 -56 c3 -5 1 -10 -4 -10 -6 0 -11 5 -11 10 0 6 2 10 4
10 3 0 8 -4 11 -10z m559 -25 c21 -19 44 -35 51 -35 9 0 15 -15 17 -42 3 -43
3 -43 41 -42 l38 0 -7 -40 c-3 -23 -10 -49 -15 -58 -5 -9 -9 -28 -9 -42 0 -19
-5 -26 -19 -26 -19 0 -19 2 -5 35 17 42 18 101 2 111 -7 5 -24 7 -39 6 -21 -2
-37 10 -77 56 -28 32 -54 61 -58 65 -5 5 29 43 42 47 1 0 18 -16 38 -35z m148
-14 c2 -21 -2 -36 -10 -39 -9 -3 -12 9 -10 42 1 52 14 50 20 -3z m188 2 c-5
-27 -6 -51 -3 -55 2 -5 -3 -8 -12 -8 -12 0 -15 5 -11 16 3 9 9 28 12 42 15 68
24 71 14 5z m-551 -16 c23 -47 26 -67 12 -67 -5 0 -12 15 -16 33 -4 17 -13 42
-21 55 -8 12 -10 22 -5 22 5 0 19 -19 30 -43z m-594 23 c3 -5 1 -10 -4 -10 -6
0 -11 5 -11 10 0 6 2 10 4 10 3 0 8 -4 11 -10z m-100 -10 c-3 -5 -12 -10 -18
-10 -7 0 -6 4 3 10 19 12 23 12 15 0z m-89 -67 c-38 -37 -53 -59 -45 -63 6 -4
9 -14 7 -21 -3 -10 -9 -7 -17 10 -12 21 -9 27 43 77 31 30 58 54 62 54 3 0
-19 -25 -50 -57z m306 -11 c-4 -20 -6 -22 -14 -8 -5 9 -17 16 -28 16 -14 0
-17 -5 -12 -22 5 -20 3 -21 -10 -10 -11 9 -18 10 -23 2 -3 -6 -11 -7 -17 -4
-12 7 38 54 57 54 7 0 16 7 19 17 6 15 8 15 20 -2 7 -10 11 -29 8 -43z m618 6
c0 -5 -7 -8 -15 -8 -10 0 -15 10 -15 33 l1 32 14 -25 c8 -14 14 -28 15 -32z
m360 42 c0 -5 -5 -10 -11 -10 -5 0 -7 5 -4 10 3 6 8 10 11 10 2 0 4 -4 4 -10z
m200 6 c0 -11 -71 -76 -82 -75 -10 0 -10 2 0 6 6 2 12 10 12 16 0 16 41 57 57
57 7 0 13 -2 13 -4z m-1350 -26 c0 -5 -5 -10 -11 -10 -5 0 -7 5 -4 10 3 6 8
10 11 10 2 0 4 -4 4 -10z m370 0 c0 -5 -2 -10 -4 -10 -3 0 -8 5 -11 10 -3 6
-1 10 4 10 6 0 11 -4 11 -10z m757 -6 c3 -9 -4 -34 -16 -56 -11 -22 -21 -46
-21 -53 0 -8 -9 -16 -20 -19 -11 -3 -30 -9 -41 -12 -12 -3 -19 -2 -16 3 8 14
18 62 20 103 2 36 0 35 80 49 4 0 10 -6 14 -15z m-1070 -30 c-3 -4 0 -16 8
-28 19 -26 19 -40 1 -33 -8 3 -26 -3 -40 -14 -25 -20 -26 -20 -32 -2 -3 10
-10 28 -15 41 -5 14 -5 22 1 22 6 0 10 -5 10 -12 0 -7 5 -6 13 4 11 15 31 26
51 27 5 1 6 -2 3 -5z m820 -29 c25 -19 49 -32 54 -29 5 3 9 -9 9 -26 0 -30 -1
-31 -35 -27 -39 5 -68 24 -59 39 3 5 11 4 19 -2 8 -7 19 -9 25 -5 18 11 11 25
-14 25 -14 0 -30 10 -40 25 -30 46 -20 47 41 0z m-177 1 c0 -8 14 -28 30 -44
30 -31 39 -52 20 -52 -5 0 -16 12 -24 28 -8 15 -23 36 -35 46 -25 22 -27 36
-6 36 8 0 15 -6 15 -14z m686 -11 c-26 -24 -35 -42 -15 -29 8 4 9 -1 4 -17 -4
-13 -12 -26 -16 -27 -5 -2 -7 -8 -3 -13 3 -5 1 -9 -4 -9 -6 0 -12 7 -16 15 -3
9 -12 12 -23 9 -17 -5 -17 -5 -1 6 29 18 41 49 27 66 -8 10 -8 14 0 14 6 0 11
-4 11 -10 0 -5 5 -10 10 -10 6 0 10 7 10 15 0 9 9 15 21 15 21 0 21 -1 -5 -25z
m-567 -13 c0 -9 7 -38 16 -65 14 -39 23 -49 49 -55 41 -11 36 -26 -11 -30 -36
-3 -38 -1 -40 29 -1 17 -9 39 -17 48 -8 9 -16 23 -18 31 -2 8 -7 18 -11 21
-11 8 14 50 24 43 4 -2 8 -12 8 -22z m-879 8 c0 -5 -2 -10 -4 -10 -3 0 -8 5
-11 10 -3 6 -1 10 4 10 6 0 11 -4 11 -10z m300 6 c0 -12 -49 -54 -80 -70 -38
-19 -132 -56 -140 -56 -12 1 35 30 49 30 9 0 48 22 86 49 67 47 85 56 85 47z
m940 -5 c0 -10 -39 -41 -52 -41 -4 0 -2 11 4 25 11 24 48 36 48 16z m-490 -31
c0 -5 -4 -10 -10 -10 -5 0 -10 -9 -10 -20 0 -11 4 -20 8 -20 10 0 32 -45 32
-65 0 -8 -4 -15 -10 -15 -5 0 -10 11 -10 24 0 13 -9 35 -20 49 -18 22 -19 29
-8 47 14 21 28 27 28 10z m-733 -17 c5 -13 -23 -21 -49 -15 -25 6 -22 20 5 25
29 5 40 3 44 -10z m-147 -33 c-10 -23 -10 -34 -1 -43 16 -16 14 -32 -4 -17 -8
6 -19 9 -25 5 -15 -9 -13 -1 12 50 24 49 38 53 18 5z m808 5 c-6 -14 -13 -23
-15 -21 -5 5 15 46 22 46 3 0 -1 -11 -7 -25z m-158 9 c0 -8 -19 -13 -24 -6 -3
5 1 9 9 9 8 0 15 -2 15 -3z m650 -23 c0 -12 -29 -35 -36 -28 -7 6 17 36 29 37
4 0 7 -4 7 -9z m170 -5 c0 -2 -7 -9 -15 -16 -13 -11 -14 -10 -9 4 5 14 24 23
24 12z m54 -5 c3 -5 -1 -12 -10 -15 -27 -11 -37 -7 -24 9 14 17 26 19 34 6z
m-1369 -31 c-44 -11 -67 -11 -60 0 3 6 25 9 48 9 40 -1 40 -2 12 -9z m1405 3
c0 -2 -8 -16 -17 -31 -22 -34 -50 -58 -85 -73 -32 -13 -36 -26 -10 -31 10 -3
4 -6 -15 -9 -26 -4 -30 -3 -22 8 9 10 7 13 -7 13 -13 1 -6 8 19 21 20 11 37
25 37 31 0 6 3 9 6 5 10 -10 76 45 70 58 -2 6 2 12 10 12 8 0 14 -2 14 -4z
m-1240 -33 c-21 -40 -121 -190 -126 -190 -10 0 9 45 22 53 8 4 14 13 14 19 0
5 13 27 29 47 15 20 36 51 45 69 10 19 20 32 23 29 2 -3 -1 -15 -7 -27z m120
9 c0 -6 -4 -7 -10 -4 -5 3 -10 11 -10 16 0 6 5 7 10 4 6 -3 10 -11 10 -16z
m245 11 c3 -5 1 -10 -4 -10 -6 0 -11 5 -11 10 0 6 2 10 4 10 3 0 8 -4 11 -10z
m742 -17 c-3 -3 -11 -2 -17 2 -9 6 -9 10 1 16 14 8 27 -7 16 -18z m-1193 9 c2
-4 -4 -13 -14 -20 -14 -9 -19 -8 -23 2 -3 8 -3 17 0 20 9 9 31 7 37 -2z m111
-44 c-4 -29 -11 -60 -17 -68 -6 -11 -7 -6 -4 15 3 17 8 47 12 68 10 56 17 44
9 -15z m443 32 c-9 -14 -14 -16 -20 -7 -6 10 5 20 30 26 1 1 -3 -8 -10 -19z
m667 -10 c3 -5 1 -10 -4 -10 -6 0 -11 5 -11 10 0 6 2 10 4 10 3 0 8 -4 11 -10z
m-600 -30 c14 -28 14 -31 -5 -50 l-20 -20 32 -7 c28 -6 29 -7 11 -14 -21 -8
-73 9 -73 23 0 4 11 10 25 14 29 7 33 38 8 66 -9 10 -11 18 -5 18 6 0 18 -13
27 -30z m547 22 c3 7 7 8 10 3 3 -6 0 -15 -7 -22 -10 -9 -17 -7 -31 9 -19 21
-19 21 3 10 16 -9 22 -9 25 0z m-57 -22 c3 -5 1 -10 -5 -10 -6 0 -9 -4 -6 -8
3 -5 -9 -8 -25 -8 l-31 0 24 18 c27 20 34 22 43 8z m-1157 -59 c-12 -22 -25
-41 -30 -41 -4 0 -8 -7 -8 -15 0 -8 -6 -15 -14 -15 -8 0 -24 -12 -35 -27 l-20
-28 -1 37 c0 38 16 61 22 31 2 -13 17 0 52 45 26 35 50 61 52 59 3 -2 -5 -23
-18 -46z m-131 5 c36 -31 24 -45 -14 -16 -24 17 -34 19 -57 10 -40 -15 -44
-12 -16 10 33 26 53 25 87 -4z m511 -31 c-11 -20 -23 -34 -25 -31 -7 7 26 66
37 66 5 0 0 -16 -12 -35z m-388 -94 c-5 -11 -15 -23 -21 -27 -6 -3 -3 5 6 20
20 30 30 35 15 7z m480 -22 c4 -8 12 -24 18 -35 6 -12 14 -39 18 -59 6 -33 5
-37 -10 -32 -9 4 -16 2 -16 -4 0 -6 -4 -7 -10 -4 -5 3 -10 1 -10 -4 0 -6 7
-11 16 -11 8 0 12 -5 9 -10 -4 -6 -11 -8 -16 -4 -6 3 -16 -2 -24 -12 -7 -11
-18 -20 -24 -20 -6 -1 -16 -2 -22 -3 -6 0 -9 -7 -6 -14 8 -20 -14 -40 -71 -67
-41 -18 -49 -26 -36 -30 15 -6 13 -8 -9 -12 -15 -3 -30 -1 -33 4 -4 6 -24 8
-44 6 -30 -3 -36 -1 -28 9 6 7 15 10 21 6 6 -3 7 -1 3 6 -8 12 32 81 47 81 4
0 7 8 7 18 0 13 12 22 38 30 l37 11 -27 -20 c-16 -11 -28 -28 -28 -38 0 -9 -5
-22 -12 -29 -6 -6 -9 -14 -6 -17 3 -3 13 1 21 10 9 8 20 15 25 15 12 0 52 83
52 109 0 11 -12 28 -27 39 -25 18 -26 22 -15 43 7 13 23 25 35 25 12 1 40 9
62 17 45 18 56 17 65 -4z m-363 -39 c-1 -27 -5 -50 -8 -50 -3 0 -3 -15 -1 -32
5 -40 -7 -32 -14 8 -5 25 13 124 22 124 2 0 3 -22 1 -50z m411 -153 c-7 -7
-22 -16 -33 -20 -17 -6 -17 -4 4 13 26 22 50 28 29 7z m-78 -58 c-12 -16 -24
-28 -27 -25 -7 6 27 56 39 56 5 0 0 -14 -12 -31z m180 17 c0 -4 -11 -5 -24 -2
-14 3 -28 1 -31 -4 -4 -6 -11 -8 -16 -4 -5 3 -7 10 -4 15 7 11 75 7 75 -5z
m33 -21 c-7 -21 -13 -19 -13 6 0 11 4 18 10 14 5 -3 7 -12 3 -20z m-4 -66
c-22 -14 -39 -10 -39 9 0 13 2 14 9 4 6 -10 11 -9 22 4 9 11 14 13 17 4 3 -7
-2 -16 -9 -21z m-252 -15 c-3 -3 -12 -4 -19 -1 -8 3 -5 6 6 6 11 1 17 -2 13
-5z m393 -9 c0 -12 -19 -12 -23 0 -4 9 -1 12 9 8 7 -3 14 -7 14 -8z m-470 -14
c-19 -9 -37 -16 -40 -13 -9 7 34 32 54 32 16 -1 13 -5 -14 -19z m332 -33 c-9
-9 -12 -8 -12 5 0 9 -7 17 -15 17 -8 0 -15 -8 -15 -17 0 -14 -2 -15 -9 -4 -6
9 -3 20 7 32 16 19 17 19 36 -1 16 -15 18 -22 8 -32z m-410 -46 c-9 -23 -21
-42 -25 -42 -5 0 -7 3 -5 8 2 4 12 24 22 46 23 51 31 41 8 -12z m413 -12 c3
-5 2 -10 -4 -10 -5 0 -13 5 -16 10 -3 6 -2 10 4 10 5 0 13 -4 16 -10z m24 -34
c9 -11 9 -19 -1 -35 -7 -12 -17 -21 -22 -21 -4 0 -3 7 5 16 10 12 10 20 1 35
-14 22 0 26 17 5z m41 0 c0 -3 -4 -8 -10 -11 -5 -3 -10 -1 -10 4 0 6 5 11 10
11 6 0 10 -2 10 -4z m-155 -86 c3 -6 -1 -7 -9 -4 -18 7 -21 14 -7 14 6 0 13
-4 16 -10z"/>
<path d="M2142 2888 c26 -97 44 -136 69 -150 15 -9 30 -14 33 -10 9 8 7 72 -2
72 -4 0 -25 23 -47 50 -38 48 -60 64 -53 38z"/>
<path d="M2350 2034 c-21 -54 -9 -67 35 -38 28 18 33 49 9 58 -27 10 -34 7
-44 -20z"/>
<path d="M2475 1990 c-4 -6 -2 -17 4 -24 9 -11 8 -14 -6 -12 -10 0 -22 7 -26
14 -12 18 -66 15 -74 -4 -7 -19 1 -25 84 -60 65 -28 106 -27 83 1 -7 8 -9 15
-6 15 4 0 0 7 -8 16 -9 8 -16 26 -16 40 0 24 -23 33 -35 14z"/>
<path d="M2380 1902 c0 -8 31 -50 135 -183 78 -101 84 -106 95 -89 14 21 12
30 -3 24 -11 -4 -14 8 -13 52 1 32 -4 63 -11 69 -6 7 -10 21 -7 31 4 16 -12
27 -85 62 -91 43 -111 49 -111 34z"/>
<path d="M1950 1133 c-8 -2 -22 -7 -30 -10 -16 -7 -27 -9 -50 -12 -13 -1 -13
-2 0 -11 10 -6 22 -4 37 5 12 8 30 15 40 15 10 0 25 5 33 10 13 9 13 10 0 9
-8 0 -22 -3 -30 -6z"/>
<path d="M1473 538 c-22 -30 -47 -88 -40 -94 4 -4 14 9 22 29 8 20 25 45 37
57 17 15 18 20 6 20 -9 0 -20 -6 -25 -12z"/>
<path d="M1980 475 c-33 -13 -33 -14 -9 -14 15 -1 32 6 39 14 14 17 15 17 -30
0z"/>
<path d="M1410 421 c0 -5 -20 -17 -45 -26 -38 -15 -47 -16 -62 -4 -14 12 -16
12 -11 -1 7 -23 42 -23 87 -1 40 21 61 41 42 41 -6 0 -11 -4 -11 -9z"/>
<path d="M3512 1998 c-19 -19 -16 -177 4 -199 15 -17 15 -20 0 -43 -12 -19
-16 -49 -16 -118 0 -100 14 -138 50 -138 36 0 50 38 50 139 0 75 -4 98 -17
113 -16 18 -16 21 0 47 19 33 23 143 7 185 -7 20 -17 26 -38 26 -15 0 -33 -5
-40 -12z"/>
<path d="M4993 1998 c-6 -7 -13 -49 -16 -93 -5 -69 -3 -84 13 -105 18 -23 18
-26 2 -43 -21 -24 -29 -153 -13 -207 17 -56 71 -66 87 -17 13 39 4 200 -13
225 -13 21 -13 26 1 41 12 13 16 39 16 98 0 45 -3 88 -6 97 -7 19 -57 21 -71
4z"/>
<path d="M7350 1915 c0 -106 10 -121 59 -94 23 13 26 22 29 75 4 87 -8 114
-53 114 l-35 0 0 -95z"/>
<path d="M6065 1843 c-3 -15 -12 -51 -20 -80 -7 -28 -11 -54 -7 -57 3 -3 21
-6 40 -6 l34 0 -6 40 c-3 22 -9 58 -12 80 -7 49 -21 60 -29 23z"/>
<path d="M6958 1860 c-20 -61 -36 -146 -29 -153 5 -5 21 -7 37 -5 29 3 29 4
25 58 -3 61 -25 125 -33 100z"/>
<path d="M2040 1978 c-19 -11 -29 -23 -23 -25 7 -3 23 3 35 11 12 9 32 16 45
16 12 0 25 5 28 10 11 19 -49 10 -85 -12z"/>
<path d="M1800 1840 c0 -5 4 -10 9 -10 6 0 13 5 16 10 3 6 -1 10 -9 10 -9 0
-16 -4 -16 -10z"/>
<path d="M1816 1505 c4 -8 10 -12 15 -9 11 6 2 24 -11 24 -5 0 -7 -7 -4 -15z"/>
</g>
</svg>
